<?xml version="1.0" ?>
<svg enable-background="new 0 0 515.91 728.5"
     height="512" id="Layer_1" version="1.1" viewBox="0 0 512.00003 512" width="512" xml:space="preserve" xmlns="http://www.w3.org/2000/svg"
     xmlns:cc="http://creativecommons.org/ns#" xmlns:dc="http://purl.org/dc/elements/1.1/" xmlns:inkscape="http://www.inkscape.org/namespaces/inkscape"
     xmlns:rdf="http://www.w3.org/1999/02/22-rdf-syntax-ns#" xmlns:sodipodi="http://sodipodi.sourceforge.net/DTD/sodipodi-0.dtd" xmlns:svg="http://www.w3.org/2000/svg">
    <defs id="defs7"/>
    <g id="g6700" transform="translate(136.1786,108.25001)">
    <path d="m -733.62329,72.267944 c 0,203.804876 -165.21649,369.021366 -369.02141,369.021366 -203.8048,0 -369.0213,-165.21649 -369.0213,-369.021366 0,-203.804874 165.2165,-369.021364 369.0213,-369.021364 203.80492,0 369.02141,165.21649 369.02141,369.021364 z" id="path5048"
          style="fill:none;fill-opacity:1;fill-rule:nonzero;stroke:none"
          transform="matrix(0.69372682,0,0,0.69372682,884.75558,97.615782)"/>
    <g id="g24302" style="fill:#ffffff;fill-opacity:1"
       transform="matrix(0.81748925,0,0,0.81748925,-647.75572,-529.55666)">
        <path d="m 939.78125,684.53125 c -85.12151,0 -154.125,69.13139 -154.125,154.40625 0,85.27514 69.00309,154.40625 154.125,154.40625 85.12145,0 154.12495,-69.13141 154.12495,-154.40625 0,-85.27512 -69.003,-154.40625 -154.12495,-154.40625 z m 0,7.71875 c 80.85825,0 146.40625,65.68375 146.40625,146.6875 0,81.00349 -65.5485,146.65625 -146.40625,146.65625 -80.85822,0 -146.40625,-65.65248 -146.40625,-146.65625 0,-81.00351 65.54841,-146.6875 146.40625,-146.6875 z"
              id="path24214" style="fill:#ffffff;fill-opacity:1;fill-rule:evenodd"/>
        <path d="m 1069.2188,657.4375 c -0.9784,10e-4 -1.9374,0.0136 -2.9063,0.0312 -31.7197,0.87194 -61.1607,13.85789 -89.34375,27.46875 3.78006,0.93058 7.51723,2.01213 11.21875,3.21875 0.16474,-0.12414 0.33669,-0.23411 0.5,-0.375 30.5967,-14.301 64.397,-26.59274 98.7187,-21.40625 13.6769,1.82277 25.88,11.08043 30.5626,24.15625 9.2644,23.92713 2.0639,50.73807 -6.9376,73.6875 -21.3369,51.32677 -57.2649,95.48189 -95.1562,135.5 -10.8117,11.96094 -23.28202,22.32106 -35.25,32.875 -0.77839,3.60758 4.76143,7.27323 7.0625,3.25 30.9892,-25.49448 57.6356,-55.96937 82.3437,-87.5 25.6586,-34.41185 49.7777,-71.8487 58.3126,-114.53125 4.4937,-22.54954 1.6498,-49.6536 -17.0313,-65.21875 -11.813,-9.17303 -27.418,-11.17499 -42.0937,-11.15625 z m -285.0313,209.75 c -16.76797,26.4609 -30.78166,55.83837 -34.375,87.3125 -2.53363,21.14363 3.61188,45.34823 22.6875,56.9688 22.52197,13.3921 50.85098,9.5374 75.125,3.2812 28.97951,-7.9654 56.36119,-21.02156 81.8125,-36.78125 1.67094,-3.46256 -4.28391,-7.61602 -6.90625,-4.1875 -33.51145,19.21233 -69.93697,36.14845 -109.0625,38.99995 -19.00071,1.2513 -40.84031,-3.6229 -50.375,-21.74995 -11.82394,-22.08489 -5.31862,-48.82312 2.8125,-71 5.33722,-14.74881 12.95796,-28.57904 20.53125,-42.25 -0.87245,-3.50024 -1.61741,-7.04014 -2.25,-10.59375 z" id="path24216" style="fill:#ffffff;fill-opacity:1;fill-rule:evenodd"/><path d="m 1050.8125,636.84375 c -1.1428,-0.002 -2.2962,0.0278 -3.4375,0.0625 -43.224,0.72921 -82.43575,21.61089 -118.90625,42.875 -0.23463,0.40567 -0.38725,0.76474 -0.5,1.09375 3.36394,-0.22806 6.73962,-0.35458 10.125,-0.34375 1.45036,-0.0277 2.89472,-0.0467 4.34375,-0.0312 0.0208,2.2e-4 0.0417,-2.3e-4 0.0625,0 3.91371,-2.21759 7.62971,-5.14842 11.75,-6.78125 30.66735,-15.93006 64.3403,-30.61011 99.6875,-29.15625 16.4606,0.64788 35.0081,7.14283 41.9687,23.40625 10.1464,22.22799 4.1368,47.86313 -3.4062,69.875 -18.4183,49.80439 -51.3245,92.84146 -87.5312,130.90625 -15.12074,15.80829 -31.5595,30.40668 -48.2188,44.625 -1.25284,3.68967 4.83444,7.69076 7.15625,3.5625 50.86265,-42.77248 96.82335,-93.41069 126.24995,-153.46875 12.3784,-26.79612 23.0333,-56.94168 16.9063,-86.78125 -3.3637,-16.89603 -15.9413,-31.67692 -32.6563,-36.34375 -7.5965,-2.50299 -15.5938,-3.48315 -23.5937,-3.5 z M 783.21875,816.625 l -0.125,0.1875 c -23.57637,33.50355 -46.21074,69.4738 -53.71875,110.34375 -3.96932,21.22873 -0.26511,46.33847 17.65625,60.28125 19.99155,15.1376 47.27685,13.7646 70.71875,9.3125 31.98098,-6.77176 62.51357,-20.54139 89.71875,-38.09375 1.69097,-3.80579 -5.26486,-6.66147 -7.375,-3.78125 -30.67108,18.43951 -64.67463,32.25846 -100.25,36.84375 -20.58374,2.01346 -45.30226,-1.16611 -57,-20.25 -11.82447,-19.89872 -6.81757,-44.93406 0.0312,-65.78125 9.00427,-26.61522 23.58489,-50.68786 38.96875,-73.9375 0.22196,-5.05892 0.67814,-10.11172 1.375,-15.125 z" id="path24218" style="fill:#ffffff;fill-opacity:1;fill-rule:evenodd"/><path d="m 807.8125,658.09375 c -1.05512,0.005 -2.09804,0.0317 -3.15625,0.0625 -19.29011,-0.30639 -40.37951,7.18073 -49.71875,25.125 -11.29479,22.28666 -6.62107,48.95519 0.6875,71.78125 17.55884,50.90558 50.78406,94.75944 87.0625,133.9375 43.90424,45.8544 94.55284,87.0087 152.6875,113.2812 28.4847,12.3275 60.2731,22.5137 91.5625,16.25 18.4305,-3.471 35.4702,-16.7501 39.6563,-35.5312 6.6183,-28.87711 -3.0546,-58.56271 -14.75,-84.75 -5.0008,-10.4097 -10.2171,-21.02615 -16.4376,-30.78125 -0.6388,3.6056 -1.3885,7.19975 -2.2812,10.75 15.1762,26.67981 28.5538,55.58849 28.6875,86.65625 0.3496,18.10026 -9.5875,36.8554 -27.0625,43.3125 -23.9009,9.2102 -51.0804,3.0853 -74.7188,-4.625 -54.63888,-19.28557 -102.87747,-53.9664 -145.31245,-92.90625 -42.19402,-39.58295 -80.00543,-84.91493 -104.1875,-137.75 -10.17741,-23.87175 -19.27807,-50.75485 -12.5,-76.75 4.25346,-16.60505 19.77906,-28.16837 36.5,-29.90625 33.56229,-4.5204 66.45323,7.53606 96.15625,22.0625 3.2428,-1.08102 6.50469,-2.07383 9.8125,-2.9375 -0.0909,-0.0318 -0.15341,-0.0612 -0.25,-0.0937 -28.51915,-15.05836 -59.72877,-27.33258 -92.4375,-27.1875 z" id="path24220" style="fill:#ffffff;fill-opacity:1;fill-rule:evenodd"/><path d="m 826.71875,636.5625 c -0.67207,0.002 -1.35911,0.0101 -2.03125,0.0312 -18.9854,-0.24218 -39.45138,7.5673 -48.75,25 -12.58095,23.17396 -7.02229,51.38923 1.375,75 20.56866,56.47309 58.68912,104.79962 100.78125,146.90625 45.02349,43.80973 96.4595,82.84145 155.59375,105.34375 26.9456,9.59417 57.7009,16.7595 85.4375,6.125 17.6581,-6.41987 29.2266,-23.96394 30.5312,-42.34375 2.4615,-32.6083 -10.582,-64.0874 -25.7812,-92.125 -8.0717,-14.81716 -17.518,-28.79985 -27.4375,-42.40625 0.6468,4.90604 1.0799,9.83704 1.2813,14.78125 20.3766,29.83366 38.8029,62.35254 44.1874,98.53125 2.8028,19.17213 -1.4582,41.80784 -18.8124,52.75 -20.3107,12.81106 -46.149,9.11311 -68.1876,3.4375 -48.1193,-13.69626 -91.43123,-41.53944 -130.2812,-72.4375 -50.4419,-41.25521 -95.49365,-90.4408 -126.25,-148.28125 -13.05997,-26.05265 -25.03409,-54.92695 -21.25,-84.625 2.02921,-17.24186 14.5706,-32.76531 31.90625,-36.21875 28.17083,-6.16653 56.87065,2.87074 82.96875,13.125 14.88796,6.00379 29.09176,13.6592 42.96875,21.40625 1.03838,-0.0195 2.08495,-0.0346 3.125,-0.0312 1.45036,-0.0277 2.89472,-0.0467 4.34375,-0.0312 2.19871,0.0235 4.40107,0.12792 6.59375,0.25 C 913.60939,658.73719 874.91927,639.51948 832.75,636.7188 c -2.01424,-0.0961 -4.01504,-0.16303 -6.03125,-0.15625 z"
                                                                                                                                                                                                                                                                                                                                                                                                                                                                                                                                                                                                                                                                                                                                                                                                                                                                                                                                                                                                                                                                                                                                                                                                                                      id="path24222" style="fill:#ffffff;fill-opacity:1;fill-rule:evenodd"/></g></g></svg>