<?xml version="1.0" ?><!DOCTYPE svg  PUBLIC '-//W3C//DTD SVG 1.1//EN'
        'http://www.w3.org/Graphics/SVG/1.1/DTD/svg11.dtd'>
<svg enable-background="new 0 0 200 200" height="200px" id="Layer_1" version="1.1" viewBox="0 0 200 200" width="200px" xml:space="preserve" xmlns="http://www.w3.org/2000/svg" xmlns:xlink="http://www.w3.org/1999/xlink"><g><path d="M176.854,30.638c-1.165-1.167-2.697-1.752-4.227-1.752H27.376c-1.535,0-3.066,0.585-4.233,1.752   s-1.752,2.699-1.752,4.228v99.972h157.215V34.866C178.606,33.336,178.023,31.805,176.854,30.638z M100,32.232   c0.985,0,1.781,0.797,1.781,1.78s-0.796,1.78-1.781,1.78s-1.782-0.797-1.782-1.78S99.015,32.232,100,32.232z M168.354,124.582   H31.645V39.138h136.709V124.582z" /><path d="M21.391,138.966L0.627,159.669c-0.592,0.592-0.804,1.507-0.464,2.327c0.343,0.823,1.135,1.322,1.975,1.322   h195.725c0.841,0,1.633-0.499,1.977-1.322c0.34-0.82,0.126-1.735-0.467-2.327l-20.766-20.703H21.391z M177.529,150.669   c0.424,0.489,0.547,1.2,0.259,1.828c-0.289,0.627-0.907,0.995-1.556,0.995h-55.59l0.313,1.425c0.063,0.292,0,0.609-0.205,0.863   c-0.201,0.253-0.499,0.381-0.801,0.381H80.045c-0.296,0-0.592-0.128-0.796-0.381c-0.203-0.254-0.27-0.571-0.208-0.863l0.315-1.425   H23.767c-0.648,0-1.267-0.368-1.554-0.995c-0.289-0.628-0.167-1.339,0.257-1.828l5.649-6.576h143.76L177.529,150.669z" /><path d="M197.862,164.6h-80.554c-0.092,0.205-0.209,0.396-0.354,0.571c-0.439,0.517-1.083,0.816-1.766,0.816H84.812   c-0.68,0-1.325-0.3-1.765-0.816c-0.146-0.175-0.265-0.366-0.353-0.571H2.137c-0.795,0-1.538-0.28-2.134-0.757v2.145   c0,1.313,0.503,2.625,1.503,3.624c0.999,1.002,2.31,1.503,3.625,1.503h189.733c1.314,0,2.631-0.501,3.629-1.503   c1.001-0.999,1.5-2.312,1.5-3.624v-2.145C199.404,164.319,198.659,164.6,197.862,164.6z M18.072,168.977   c-0.613,0-1.114-0.501-1.114-1.121c0-0.617,0.501-1.118,1.114-1.118c0.619,0,1.118,0.501,1.118,1.118   C19.19,168.476,18.691,168.977,18.072,168.977z M23.446,168.977c-0.615,0-1.12-0.501-1.12-1.121c0-0.617,0.504-1.118,1.12-1.118   c0.622,0,1.12,0.501,1.12,1.118C24.566,168.476,24.068,168.977,23.446,168.977z M28.824,168.977c-0.62,0-1.121-0.501-1.121-1.121   c0-0.617,0.501-1.118,1.121-1.118c0.615,0,1.115,0.501,1.115,1.118C29.938,168.476,29.439,168.977,28.824,168.977z" /><g><g><path d="M99.376,66.85c0,1.057-0.27,2.055-0.743,2.922l-1.524-1.598c0.147-0.414,0.223-0.862,0.223-1.325     c0-2.255-1.831-4.088-4.086-4.088c-2.251,0-4.088,1.833-4.088,4.088c0,1.71,1.059,3.178,2.553,3.787v2.148     c-2.641-0.682-4.596-3.084-4.596-5.935c0-3.382,2.751-6.133,6.131-6.133C96.625,60.717,99.376,63.468,99.376,66.85z" /><path d="M93.245,55.609c-6.197,0-11.242,5.041-11.242,11.241c0,5.677,4.233,10.38,9.708,11.132v-2.068     c-4.34-0.732-7.661-4.517-7.661-9.064c0-5.073,4.123-9.199,9.196-9.199s9.198,4.126,9.198,9.199c0,1.935-0.603,3.73-1.631,5.214     l1.435,1.507c1.409-1.877,2.239-4.206,2.239-6.722C104.485,60.65,99.446,55.609,93.245,55.609z" /></g><path d="M93.362,66.634c-0.074,0.028-0.118,0.098-0.118,0.174v35.346c0,0.072,0.041,0.139,0.112,0.17    c0.047,0.021,0.1,0.02,0.146,0.004c0.019-0.009,0.035-0.02,0.052-0.035l6.831-6.103c0.018-0.014,0.037-0.024,0.058-0.033    c0.033-0.012,0.072-0.018,0.112-0.007c0.061,0.014,0.11,0.058,0.128,0.11l4.412,11.03c0.127,0.313,0.37,0.575,0.698,0.719    c0.336,0.142,0.693,0.135,1.002,0.014l5.381-2.151c0.311-0.128,0.575-0.37,0.719-0.701c0.142-0.333,0.131-0.692,0.012-1.002    l-4.417-11.029c-0.02-0.056-0.014-0.121,0.022-0.175c0.021-0.031,0.053-0.056,0.084-0.07c0.021-0.007,0.042-0.011,0.065-0.011    l9.151-0.292c0.021,0,0.042-0.005,0.063-0.012c0.044-0.02,0.082-0.054,0.105-0.105c0.027-0.07,0.012-0.147-0.037-0.2    L93.569,66.678C93.518,66.627,93.434,66.604,93.362,66.634L93.362,66.634z" /></g></g></svg>