<?xml version="1.0" ?><!DOCTYPE svg  PUBLIC '-//W3C//DTD SVG 1.1//EN'
        'http://www.w3.org/Graphics/SVG/1.1/DTD/svg11.dtd'>
<svg enable-background="new 0 0 200 200" height="200px" id="Layer_1" version="1.1" viewBox="0 0 200 200" width="200px" xml:space="preserve" xmlns="http://www.w3.org/2000/svg" xmlns:xlink="http://www.w3.org/1999/xlink"><g><path d="M94.756,163.967V152.91c0-0.618-0.235-1.234-0.707-1.704c-0.468-0.471-1.086-0.706-1.704-0.706H59.419   c-0.62,0-1.233,0.235-1.706,0.706c-0.47,0.47-0.704,1.086-0.704,1.704v11.057l-12.92,7.138c-0.125,0.073-0.238,0.175-0.316,0.312   c-0.081,0.135-0.119,0.283-0.119,0.429v1.57c0,0.216,0.083,0.432,0.248,0.597s0.381,0.248,0.597,0.248h62.768   c0.218,0,0.434-0.083,0.596-0.248c0.168-0.165,0.246-0.381,0.246-0.597v-1.57c0-0.146-0.037-0.294-0.116-0.429   c-0.079-0.137-0.188-0.238-0.32-0.312L94.756,163.967z" /><path d="M150.087,46.986c-1.114-1.117-2.581-1.676-4.044-1.676H5.722c-1.465,0-2.929,0.559-4.046,1.676   C0.558,48.105,0,49.569,0,51.033v90.831c0,1.466,0.558,2.931,1.676,4.049c1.117,1.117,2.582,1.675,4.046,1.675h140.321   c1.463,0,2.93-0.558,4.044-1.675c1.12-1.118,1.678-2.583,1.678-4.049V51.033C151.765,49.569,151.207,48.105,150.087,46.986z    M75.882,145.166c-1.396,0-2.531-1.135-2.531-2.532c0-1.395,1.134-2.529,2.531-2.529s2.529,1.135,2.529,2.529   C78.411,144.031,77.278,145.166,75.882,145.166z M141.868,137.689H9.897v-82.48h131.971V137.689z" /><g><path d="M184.754,68.868h-28.738v72.995c0,2.667-1.037,5.172-2.926,7.055c-1.878,1.881-4.385,2.92-7.047,2.92    h-11.276v8.699c0,2.215,1.8,4.013,4.013,4.013h51.592c2.212,0,4.01-1.798,4.01-4.013V35.367c0-2.213-1.798-4.01-4.01-4.01h-51.592    c-2.213,0-4.013,1.797-4.013,4.01v5.692h6.426c-0.001-0.027-0.009-0.049-0.009-0.074c0-1.767,1.443-3.211,3.209-3.211h40.361    c1.764,0,3.209,1.444,3.209,3.211c0,1.766-1.445,3.209-3.209,3.209h-31.467c1.544,1.633,2.481,3.696,2.685,5.916h28.782    c1.764,0,3.209,1.446,3.209,3.212c0,1.765-1.445,3.209-3.209,3.209h-28.738v5.916h28.738c1.764,0,3.209,1.444,3.209,3.209    C187.963,67.424,186.518,68.868,184.754,68.868z M166.179,143.151c0,0.884-0.725,1.606-1.606,1.606    c-0.88,0-1.604-0.723-1.604-1.606v-4.813c0-0.883,0.725-1.604,1.604-1.604c0.882,0,1.606,0.722,1.606,1.604V143.151z     M164.572,131.119c-2.657,0-4.811-2.159-4.811-4.816c0-2.659,2.153-4.813,4.811-4.813c2.656,0,4.816,2.154,4.816,4.813    C169.389,128.96,167.229,131.119,164.572,131.119z" /><path d="M190.371,25.74h-51.592c-5.298,0-9.63,4.331-9.63,9.627v5.692h4.013v-5.692    c0-3.098,2.519-5.617,5.617-5.617h51.592c3.095,0,5.616,2.52,5.616,5.617v125.17c0,3.098-2.521,5.617-5.616,5.617h-51.592    c-3.099,0-5.617-2.52-5.617-5.617v-8.699h-4.013v8.699c0,5.297,4.332,9.629,9.63,9.629h3.308v0.883c0,0.82,0.314,1.642,0.94,2.269    c0.629,0.628,1.449,0.942,2.269,0.942h1.604c0.821,0,1.643-0.314,2.269-0.942c0.629-0.627,0.94-1.448,0.94-2.269v-0.883h28.926    v0.883c0,0.82,0.317,1.642,0.94,2.269c0.628,0.628,1.449,0.942,2.271,0.942h1.604c0.822,0,1.644-0.314,2.27-0.942    c0.626-0.627,0.94-1.448,0.94-2.269v-0.883h3.311c5.294,0,9.629-4.332,9.629-9.629V35.367C200,30.071,195.665,25.74,190.371,25.74    z" /></g><g><path d="M89.912,96.217c-0.583-0.581-1.396-0.919-2.235-0.919c-0.821,0-1.617,0.322-2.197,0.881    c-0.14-0.543-0.417-1.045-0.821-1.452c-0.588-0.582-1.403-0.918-2.24-0.918c-0.82,0-1.617,0.321-2.197,0.88    c-0.135-0.543-0.416-1.042-0.824-1.451c-0.583-0.58-1.398-0.918-2.237-0.918c-0.715,0-1.411,0.246-1.964,0.678v-7.115    c0-0.837-0.324-1.628-0.918-2.22c-0.582-0.583-1.398-0.917-2.237-0.917c-0.837,0-1.652,0.333-2.235,0.917    c-0.592,0.591-0.918,1.382-0.918,2.22v17.743l-2.347-2.532c-0.556-0.601-1.311-0.953-2.125-1c-0.06-0.001-0.117-0.006-0.175-0.006    c-0.753,0-1.48,0.275-2.051,0.768l-0.171,0.149c-0.593,0.513-0.971,1.222-1.063,1.997c-0.092,0.776,0.108,1.555,0.559,2.19    l8.442,11.896c0.119,0.805,0.49,1.546,1.074,2.131c0.721,0.72,1.677,1.115,2.696,1.115h10.682c1.017,0,1.978-0.396,2.696-1.115    c0.656-0.658,1.045-1.516,1.105-2.433l2.119-7.159c0.165-0.557,0.291-1.125,0.378-1.697c0.081-0.571,0.124-1.153,0.124-1.729    v-7.77C90.832,97.597,90.505,96.81,89.912,96.217z" /><path d="M61.859,82.746c0-5.624,4.56-10.186,10.183-10.186c5.625,0,10.186,4.563,10.186,10.186    c0,3.733-2.018,6.99-5.014,8.766c-0.019,0-0.036-0.006-0.054-0.006c-0.391,0-0.778,0.06-1.149,0.17v-1.673    c2.572-1.414,4.342-4.118,4.342-7.257c0-4.583-3.727-8.312-8.312-8.312c-4.582,0-8.309,3.729-8.309,8.312    c0,3.139,1.767,5.841,4.34,7.257v2.127C64.42,90.583,61.859,86.962,61.859,82.746z M77.615,82.746c0-3.071-2.491-5.56-5.56-5.56    c-3.071,0-5.56,2.489-5.56,5.56c0,1.509,0.604,2.872,1.579,3.873v-0.735c0-0.688,0.19-1.339,0.518-1.924    c-0.135-0.381-0.222-0.785-0.222-1.214c0-2.032,1.652-3.686,3.686-3.686c2.032,0,3.683,1.654,3.683,3.686    c0,0.438-0.089,0.85-0.229,1.239c0.318,0.577,0.503,1.22,0.503,1.898v0.762C77,85.641,77.615,84.267,77.615,82.746z" /></g></g></svg>