<?xml version="1.0" ?><!DOCTYPE svg  PUBLIC '-//W3C//DTD SVG 1.1//EN'
        'http://www.w3.org/Graphics/SVG/1.1/DTD/svg11.dtd'>
<svg enable-background="new 0 0 200 200" height="200px" id="Layer_1" version="1.1" viewBox="0 0 200 200" width="200px" xml:space="preserve" xmlns="http://www.w3.org/2000/svg" xmlns:xlink="http://www.w3.org/1999/xlink"><g><g><g><path d="M162.438,178.185v-7.288c0-0.401-0.152-0.808-0.469-1.12c-0.31-0.309-0.713-0.465-1.124-0.465h-21.691     c-0.407,0-0.818,0.156-1.124,0.465c-0.309,0.313-0.465,0.719-0.465,1.12v7.288l-8.512,4.705     c-0.084,0.045-0.156,0.112-0.211,0.203c-0.051,0.09-0.076,0.188-0.076,0.282v1.038c0,0.14,0.055,0.281,0.16,0.389     c0.112,0.111,0.254,0.166,0.396,0.166h41.358c0.143,0,0.284-0.055,0.394-0.166c0.108-0.107,0.163-0.249,0.163-0.389v-1.038     c0-0.095-0.029-0.192-0.08-0.282c-0.051-0.091-0.12-0.158-0.207-0.203L162.438,178.185z" /><path d="M198.895,101.105c-0.738-0.736-1.698-1.107-2.665-1.107h-92.461c-0.967,0-1.927,0.371-2.665,1.107     c-0.734,0.738-1.102,1.701-1.102,2.665v59.851c0,0.967,0.367,1.931,1.102,2.665c0.738,0.738,1.698,1.105,2.665,1.105h92.461     c0.967,0,1.927-0.367,2.665-1.105c0.738-0.734,1.105-1.698,1.105-2.665v-59.851C200,102.807,199.633,101.844,198.895,101.105z      M149.999,165.795c-0.924,0-1.669-0.747-1.669-1.667c0-0.922,0.745-1.667,1.669-1.667c0.916,0,1.669,0.745,1.669,1.667     C151.668,165.048,150.915,165.795,149.999,165.795z M193.478,160.872h-86.957v-54.35h86.957V160.872z" /></g><g><path d="M62.436,93.217v-7.287c0-0.405-0.152-0.809-0.465-1.122c-0.309-0.309-0.716-0.465-1.124-0.465H39.151     c-0.407,0-0.811,0.156-1.124,0.465c-0.313,0.313-0.462,0.716-0.462,1.122v7.287l-8.515,4.703     c-0.083,0.047-0.156,0.116-0.207,0.204c-0.055,0.091-0.08,0.189-0.08,0.285v1.035c0,0.144,0.055,0.284,0.164,0.393     c0.109,0.107,0.251,0.162,0.396,0.162h41.354c0.142,0,0.284-0.054,0.393-0.162c0.109-0.109,0.164-0.249,0.164-0.393v-1.035     c0-0.096-0.025-0.194-0.076-0.285c-0.051-0.087-0.127-0.156-0.214-0.204L62.436,93.217z" /><path d="M98.896,16.138c-0.734-0.736-1.698-1.105-2.665-1.105H3.771c-0.967,0-1.927,0.369-2.665,1.105     C0.367,16.874,0,17.839,0,18.803v59.851c0,0.967,0.367,1.931,1.105,2.668c0.738,0.734,1.698,1.104,2.665,1.104h92.461     c0.967,0,1.931-0.369,2.665-1.104c0.738-0.738,1.105-1.702,1.105-2.668V18.803C100.002,17.839,99.635,16.874,98.896,16.138z      M50.001,80.83c-0.924,0-1.669-0.747-1.669-1.669c0-0.92,0.745-1.667,1.669-1.667c0.916,0,1.665,0.747,1.665,1.667     C51.666,80.083,50.917,80.83,50.001,80.83z M93.476,75.905H6.523V21.556h86.953V75.905z" /></g></g><g><g><g><path d="M159.634,80.166c0,2.669-2.167,4.832-4.835,4.832c-2.673,0-4.832-2.163-4.832-4.832      c0-2.668,2.159-4.832,4.832-4.832C157.467,75.334,159.634,77.498,159.634,80.166z" /><path d="M159.634,45.203c0,2.669-2.167,4.833-4.835,4.833c-2.673,0-4.832-2.164-4.832-4.833      c0-2.672,2.159-4.833,4.832-4.833C157.467,40.37,159.634,42.531,159.634,45.203z" /><path d="M159.634,62.683c0,2.67-2.167,4.834-4.835,4.834c-2.673,0-4.832-2.164-4.832-4.834      c0-2.667,2.159-4.833,4.832-4.833C157.467,57.851,159.634,60.016,159.634,62.683z" /></g><path d="M119.832,50.036c-2.673,0-4.832-2.164-4.832-4.833c0-2.672,2.159-4.833,4.832-4.833     c2.672,0,4.832,2.161,4.832,4.833C124.664,47.872,122.504,50.036,119.832,50.036z" /><path d="M137.317,50.036c-2.669,0-4.836-2.164-4.836-4.833c0-2.672,2.167-4.833,4.836-4.833     c2.665,0,4.832,2.161,4.832,4.833C142.149,47.872,139.982,50.036,137.317,50.036z" /></g><g><g><path d="M40.37,119.834c0-2.669,2.163-4.836,4.832-4.836c2.672,0,4.835,2.167,4.835,4.836      c0,2.671-2.163,4.832-4.835,4.832C42.533,124.666,40.37,122.505,40.37,119.834z" /><path d="M40.37,154.797c0-2.669,2.163-4.832,4.832-4.832c2.672,0,4.835,2.163,4.835,4.832      c0,2.672-2.163,4.832-4.835,4.832C42.533,159.629,40.37,157.469,40.37,154.797z" /><path d="M40.37,137.315c0-2.669,2.163-4.832,4.832-4.832c2.672,0,4.835,2.163,4.835,4.832      s-2.163,4.834-4.835,4.834C42.533,142.149,40.37,139.984,40.37,137.315z" /></g><path d="M80.168,149.965c2.669,0,4.832,2.163,4.832,4.832c0,2.672-2.163,4.832-4.832,4.832     s-4.832-2.16-4.832-4.832C75.336,152.128,77.499,149.965,80.168,149.965z" /><path d="M62.687,149.965c2.669,0,4.832,2.163,4.832,4.832c0,2.672-2.163,4.832-4.832,4.832     c-2.672,0-4.832-2.16-4.832-4.832C57.854,152.128,60.014,149.965,62.687,149.965z" /></g></g></g></svg>